<svg width="20" height="25" viewBox="0 0 20 25" fill="none" xmlns="http://www.w3.org/2000/svg">
<path d="M4.65625 4.20801C4.41602 4.20801 4.22852 4.28125 4.09375 4.42773C3.96484 4.56836 3.90039 4.75879 3.90039 4.99902V6.90625C3.90039 7.14063 3.96484 7.33105 4.09375 7.47754C4.22852 7.62402 4.41602 7.69727 4.65625 7.69727H11.5908C11.8252 7.69727 12.0098 7.62402 12.1445 7.47754C12.2793 7.33105 12.3467 7.14063 12.3467 6.90625V4.99902C12.3467 4.75879 12.2793 4.56836 12.1445 4.42773C12.0098 4.28125 11.8252 4.20801 11.5908 4.20801H4.65625ZM4.65625 8.67285C4.41602 8.67285 4.22852 8.74609 4.09375 8.89258C3.96484 9.0332 3.90039 9.22363 3.90039 9.46387V11.3711C3.90039 11.6113 3.96484 11.8047 4.09375 11.9512C4.22852 12.0918 4.41602 12.1621 4.65625 12.1621H15.3525C15.5811 12.1621 15.7627 12.0918 15.8975 11.9512C16.0322 11.8047 16.0996 11.6084 16.0996 11.3623V9.46387C16.0996 9.22363 16.0322 9.0332 15.8975 8.89258C15.7627 8.74609 15.5811 8.67285 15.3525 8.67285H4.65625ZM4.65625 13.1377C4.41602 13.1377 4.22852 13.208 4.09375 13.3486C3.96484 13.4893 3.90039 13.6797 3.90039 13.9199V15.8359C3.90039 16.0762 3.96484 16.2666 4.09375 16.4072C4.22852 16.5479 4.41602 16.6182 4.65625 16.6182H13.4277C13.6621 16.6182 13.8438 16.5479 13.9727 16.4072C14.1074 16.2666 14.1748 16.0762 14.1748 15.8359V13.9199C14.1748 13.6797 14.1074 13.4893 13.9727 13.3486C13.8438 13.208 13.6621 13.1377 13.4277 13.1377H4.65625ZM4.65625 17.6025C4.41602 17.6025 4.22852 17.6729 4.09375 17.8135C3.96484 17.9541 3.90039 18.1445 3.90039 18.3848V20.3008C3.90039 20.541 3.96484 20.7314 4.09375 20.8721C4.22852 21.0186 4.41602 21.0918 4.65625 21.0918H9.80664C10.041 21.0918 10.2256 21.0186 10.3604 20.8721C10.501 20.7314 10.5713 20.541 10.5713 20.3008V18.3848C10.5713 18.1445 10.501 17.9541 10.3604 17.8135C10.2256 17.6729 10.041 17.6025 9.80664 17.6025H4.65625ZM0.384766 21.2939V4.03223C0.384766 2.85449 0.683594 1.96387 1.28125 1.36035C1.87891 0.750977 2.76367 0.446289 3.93555 0.446289H16.0557C17.2217 0.446289 18.1035 0.750977 18.7012 1.36035C19.3047 1.96387 19.6064 2.85449 19.6064 4.03223V21.2939C19.6064 22.4775 19.3047 23.3711 18.7012 23.9746C18.1035 24.5781 17.2217 24.8799 16.0557 24.8799H3.93555C2.76367 24.8799 1.87891 24.5781 1.28125 23.9746C0.683594 23.3711 0.384766 22.4775 0.384766 21.2939Z" fill="#EB1618"/>
</svg>
