<svg width="20" height="28" viewBox="0 0 20 28" fill="none" xmlns="http://www.w3.org/2000/svg">
<path d="M5.18311 18.0293C4.99561 18.0293 4.84033 17.9648 4.71729 17.8359C4.59424 17.707 4.53271 17.5518 4.53271 17.3701C4.53271 17.1885 4.59424 17.0361 4.71729 16.9131C4.84033 16.79 4.99561 16.7285 5.18311 16.7285H15.1499C15.3315 16.7285 15.4839 16.79 15.6069 16.9131C15.7358 17.0361 15.8003 17.1885 15.8003 17.3701C15.8003 17.5518 15.7358 17.707 15.6069 17.8359C15.4839 17.9648 15.3315 18.0293 15.1499 18.0293H5.18311ZM5.18311 22.3008C5.00146 22.3008 4.84619 22.2363 4.71729 22.1074C4.59424 21.9785 4.53271 21.8262 4.53271 21.6504C4.53271 21.4688 4.59424 21.3135 4.71729 21.1846C4.84033 21.0615 4.99561 21 5.18311 21H10.9224C11.1099 21 11.2651 21.0615 11.3882 21.1846C11.5171 21.3135 11.5815 21.4688 11.5815 21.6504C11.5815 21.8262 11.5171 21.9785 11.3882 22.1074C11.2593 22.2363 11.104 22.3008 10.9224 22.3008H5.18311ZM5.5083 12.1406C5.20947 12.1406 4.95459 12.0352 4.74365 11.8242C4.53271 11.6133 4.42725 11.3584 4.42725 11.0596C4.42725 10.7549 4.53271 10.4971 4.74365 10.2861C4.95459 10.0752 5.20947 9.96973 5.5083 9.96973C5.81299 9.96973 6.0708 10.0752 6.28174 10.2861C6.49268 10.4971 6.59814 10.7549 6.59814 11.0596C6.59814 11.3584 6.49268 11.6133 6.28174 11.8242C6.0708 12.0352 5.81299 12.1406 5.5083 12.1406ZM5.04248 11.376L5.54346 10.5146L10.3599 13.002L9.84131 13.8633L5.04248 11.376ZM10.0435 14.3906C9.73877 14.3906 9.48096 14.2852 9.27002 14.0742C9.05908 13.8633 8.95361 13.6084 8.95361 13.3096C8.95361 13.0107 9.05908 12.7559 9.27002 12.5449C9.48096 12.3281 9.73877 12.2197 10.0435 12.2197C10.3423 12.2197 10.5972 12.3281 10.8081 12.5449C11.019 12.7559 11.1245 13.0107 11.1245 13.3096C11.1245 13.6084 11.019 13.8633 10.8081 14.0742C10.5972 14.2852 10.3423 14.3906 10.0435 14.3906ZM9.85889 12.9492L14.5962 9.39844L15.1938 10.2158L10.4478 13.7578L9.85889 12.9492ZM14.8071 10.9717C14.5083 10.9717 14.2534 10.8662 14.0425 10.6553C13.8315 10.4443 13.7261 10.1895 13.7261 9.89062C13.7261 9.5918 13.8315 9.33691 14.0425 9.12598C14.2534 8.90918 14.5083 8.80078 14.8071 8.80078C15.1177 8.80078 15.3784 8.90918 15.5894 9.12598C15.8003 9.33691 15.9058 9.5918 15.9058 9.89062C15.9058 10.1895 15.8003 10.4443 15.5894 10.6553C15.3784 10.8662 15.1177 10.9717 14.8071 10.9717ZM4.11963 27.7676C2.95947 27.7676 2.07764 27.46 1.47412 26.8447C0.870605 26.2354 0.568848 25.3447 0.568848 24.1729V6.86719C0.568848 5.70703 0.861816 4.81641 1.44775 4.19531C2.03955 3.57422 2.90088 3.26367 4.03174 3.26367H4.44482C4.42725 3.32812 4.4126 3.39551 4.40088 3.46582C4.39502 3.53027 4.39209 3.59766 4.39209 3.66797V4.59961C4.39209 4.82227 4.41846 5.0127 4.47119 5.1709H4.08447C3.55127 5.1709 3.14697 5.32324 2.87158 5.62793C2.60205 5.93262 2.46729 6.35449 2.46729 6.89355V24.1465C2.46729 24.6973 2.61377 25.1191 2.90674 25.4121C3.20557 25.7109 3.64209 25.8604 4.21631 25.8604H16.1079C16.6821 25.8604 17.1157 25.7109 17.4087 25.4121C17.7075 25.1191 17.8569 24.6973 17.8569 24.1465V6.89355C17.8569 6.35449 17.7192 5.93262 17.4438 5.62793C17.1743 5.32324 16.7729 5.1709 16.2397 5.1709H15.8618C15.9087 5.0127 15.9321 4.82227 15.9321 4.59961V3.66797C15.9321 3.59766 15.9263 3.53027 15.9146 3.46582C15.9087 3.39551 15.897 3.32812 15.8794 3.26367H16.2925C17.4233 3.26367 18.2817 3.57422 18.8677 4.19531C19.4595 4.81641 19.7554 5.70703 19.7554 6.86719V24.1729C19.7554 25.3447 19.4536 26.2354 18.8501 26.8447C18.2466 27.46 17.3647 27.7676 16.2046 27.7676H4.11963ZM6.68604 5.91797C6.36377 5.91797 6.10889 5.82422 5.92139 5.63672C5.73975 5.44922 5.64893 5.18555 5.64893 4.8457V3.65918C5.64893 3.3252 5.73975 3.06445 5.92139 2.87695C6.10889 2.68359 6.36377 2.58691 6.68604 2.58691H7.73193C7.76123 2.16504 7.88721 1.78125 8.10986 1.43555C8.33252 1.08398 8.62256 0.805664 8.97998 0.600586C9.3374 0.389648 9.73291 0.28418 10.1665 0.28418C10.6001 0.28418 10.9956 0.389648 11.353 0.600586C11.7104 0.805664 11.9976 1.08398 12.2144 1.43555C12.437 1.78125 12.563 2.16504 12.5923 2.58691H13.6382C13.9604 2.58691 14.2124 2.68359 14.394 2.87695C14.5815 3.06445 14.6753 3.3252 14.6753 3.65918V4.8457C14.6753 5.18555 14.5815 5.44922 14.394 5.63672C14.2124 5.82422 13.9604 5.91797 13.6382 5.91797H6.68604ZM10.1665 3.67676C10.4419 3.67676 10.6792 3.57715 10.8784 3.37793C11.0776 3.17285 11.1772 2.93555 11.1772 2.66602C11.1772 2.38477 11.0776 2.14746 10.8784 1.9541C10.6792 1.75488 10.4419 1.65527 10.1665 1.65527C9.88525 1.65527 9.64502 1.75488 9.4458 1.9541C9.24658 2.14746 9.14697 2.38477 9.14697 2.66602C9.14697 2.93555 9.24658 3.17285 9.4458 3.37793C9.64502 3.57715 9.88525 3.67676 10.1665 3.67676Z" fill="#EB1618"/>
</svg>
