<svg width="26" height="26" viewBox="0 0 26 26" fill="none" xmlns="http://www.w3.org/2000/svg">
<path d="M13 23.5088C12.8652 23.5088 12.7275 23.5059 12.5869 23.5C12.4521 23.4941 12.3174 23.4883 12.1826 23.4824L11.585 24.5898C11.5029 24.7422 11.3975 24.8506 11.2686 24.915C11.1396 24.9854 10.9932 25.0029 10.8291 24.9678C10.665 24.9385 10.5332 24.8711 10.4336 24.7656C10.334 24.6602 10.2695 24.5225 10.2402 24.3525L10.0645 23.1133C9.80078 23.0371 9.54004 22.9521 9.28223 22.8584C9.02441 22.7705 8.77246 22.668 8.52637 22.5508L7.58594 23.3857C7.46289 23.5029 7.32812 23.5674 7.18164 23.5791C7.04102 23.5967 6.89453 23.5674 6.74219 23.4912C6.60156 23.3975 6.50195 23.2861 6.44336 23.1572C6.39062 23.0283 6.37891 22.876 6.4082 22.7002L6.66309 21.4785C6.44629 21.3145 6.22949 21.1445 6.0127 20.9688C5.80176 20.7988 5.60254 20.6143 5.41504 20.415L4.24609 20.8896C4.08789 20.9541 3.93848 20.9688 3.79785 20.9336C3.65723 20.9043 3.53125 20.8252 3.41992 20.6963C3.31445 20.5674 3.25586 20.4297 3.24414 20.2832C3.23242 20.1367 3.27344 19.9873 3.36719 19.835L4.03516 18.7803C3.87695 18.5518 3.73047 18.3203 3.5957 18.0859C3.46094 17.8516 3.33203 17.6113 3.20898 17.3652L1.96094 17.3916C1.78516 17.3975 1.63574 17.3652 1.5127 17.2949C1.39551 17.2188 1.30762 17.0986 1.24902 16.9346C1.19629 16.7764 1.1875 16.627 1.22266 16.4863C1.26367 16.3457 1.35449 16.2227 1.49512 16.1172L2.47949 15.3438C2.40918 15.0801 2.35059 14.8135 2.30371 14.5439C2.25684 14.2744 2.21875 14.002 2.18945 13.7266L0.994141 13.3398C0.830078 13.2871 0.704102 13.2021 0.616211 13.085C0.53418 12.9678 0.493164 12.8242 0.493164 12.6543C0.493164 12.4785 0.53418 12.332 0.616211 12.2148C0.704102 12.0977 0.830078 12.0156 0.994141 11.9688L2.18945 11.582C2.21875 11.3066 2.25684 11.0342 2.30371 10.7646C2.35059 10.4951 2.40918 10.2285 2.47949 9.96484L1.49512 9.19141C1.36035 9.08594 1.26953 8.96289 1.22266 8.82227C1.18164 8.68164 1.19043 8.53223 1.24902 8.37402C1.30762 8.21582 1.39844 8.0957 1.52148 8.01367C1.64453 7.93164 1.79102 7.89355 1.96094 7.89941L3.2002 7.95215C3.3291 7.7002 3.46094 7.45703 3.5957 7.22266C3.73047 6.98242 3.87695 6.75098 4.03516 6.52832L3.36719 5.46484C3.2793 5.31836 3.23828 5.17188 3.24414 5.02539C3.25 4.87891 3.30859 4.74121 3.41992 4.6123C3.52539 4.4834 3.64844 4.40137 3.78906 4.36621C3.93555 4.33105 4.09082 4.3457 4.25488 4.41016L5.41504 4.88477C5.6084 4.69141 5.80762 4.50977 6.0127 4.33984C6.22363 4.16406 6.44043 3.99707 6.66309 3.83887L6.4082 2.59961C6.37305 2.43555 6.38184 2.28613 6.43457 2.15137C6.49316 2.01074 6.5957 1.89941 6.74219 1.81738C6.88867 1.74121 7.03516 1.70898 7.18164 1.7207C7.33398 1.73242 7.47461 1.79688 7.60352 1.91406L8.51758 2.75781C8.76367 2.64648 9.01562 2.54395 9.27344 2.4502C9.53125 2.35059 9.79492 2.26562 10.0645 2.19531L10.249 0.947266C10.2725 0.783203 10.3311 0.648438 10.4248 0.542969C10.5244 0.431641 10.6592 0.361328 10.8291 0.332031C10.9932 0.308594 11.1396 0.329102 11.2686 0.393555C11.3975 0.452148 11.5059 0.560547 11.5938 0.71875L12.1826 1.82617C12.3174 1.81445 12.4521 1.80566 12.5869 1.7998C12.7275 1.79395 12.8652 1.79102 13 1.79102C13.1348 1.79102 13.2695 1.79395 13.4043 1.7998C13.5449 1.80566 13.6826 1.81445 13.8174 1.82617L14.415 0.71875C14.4971 0.566406 14.6025 0.458008 14.7314 0.393555C14.8604 0.323242 15.0068 0.302734 15.1709 0.332031C15.335 0.367188 15.4668 0.4375 15.5664 0.542969C15.6719 0.642578 15.7334 0.780273 15.751 0.956055L15.9268 2.19531C16.1963 2.26562 16.46 2.34766 16.7178 2.44141C16.9756 2.53516 17.2275 2.6377 17.4736 2.74902L18.4141 1.92285C18.5371 1.81152 18.6689 1.74707 18.8096 1.72949C18.9561 1.70605 19.1055 1.73535 19.2578 1.81738C19.4043 1.90527 19.5039 2.0166 19.5566 2.15137C19.6152 2.28027 19.627 2.43262 19.5918 2.6084L19.3281 3.82129C19.5508 3.97949 19.7676 4.14648 19.9785 4.32227C20.1895 4.49805 20.3916 4.68555 20.585 4.88477L21.7539 4.41016C21.9062 4.35156 22.0527 4.33691 22.1934 4.36621C22.3398 4.39551 22.4688 4.47754 22.5801 4.6123C22.6855 4.74121 22.7441 4.87891 22.7559 5.02539C22.7676 5.17188 22.7266 5.31836 22.6328 5.46484L21.9736 6.51953C22.1201 6.74219 22.2607 6.97363 22.3955 7.21387C22.5361 7.44824 22.668 7.69141 22.791 7.94336L24.0391 7.9082C24.209 7.90234 24.3555 7.9375 24.4785 8.01367C24.6016 8.08984 24.6924 8.20703 24.751 8.36523C24.8037 8.5293 24.8125 8.68164 24.7773 8.82227C24.7422 8.96289 24.6514 9.08594 24.5049 9.19141L23.5205 9.95605C23.5908 10.2256 23.6494 10.4951 23.6963 10.7646C23.7432 11.0342 23.7812 11.3066 23.8105 11.582L24.9971 11.9688C25.167 12.0156 25.293 12.0977 25.375 12.2148C25.4629 12.332 25.5068 12.4785 25.5068 12.6543C25.5068 12.8242 25.4629 12.9678 25.375 13.085C25.293 13.2021 25.167 13.2871 24.9971 13.3398L23.8105 13.7266C23.7812 14.002 23.7432 14.2744 23.6963 14.5439C23.6494 14.8135 23.5908 15.0801 23.5205 15.3438L24.5137 16.1084C24.6484 16.2197 24.7363 16.3457 24.7773 16.4863C24.8184 16.6211 24.8096 16.7676 24.751 16.9258C24.6924 17.084 24.6016 17.2041 24.4785 17.2861C24.3555 17.3682 24.209 17.4062 24.0391 17.4004L22.791 17.3564C22.668 17.6025 22.5361 17.8457 22.3955 18.0859C22.2607 18.3203 22.1201 18.5488 21.9736 18.7715L22.6328 19.835C22.7266 19.9873 22.7676 20.1338 22.7559 20.2744C22.75 20.4209 22.6943 20.5586 22.5889 20.6875C22.4717 20.8164 22.3428 20.8984 22.2021 20.9336C22.0615 20.9688 21.9092 20.9541 21.7451 20.8896L20.5938 20.4238C20.3945 20.6113 20.1895 20.793 19.9785 20.9688C19.7734 21.1445 19.5566 21.3115 19.3281 21.4697L19.583 22.7002C19.624 22.8701 19.6152 23.0225 19.5566 23.1572C19.5039 23.292 19.4014 23.4004 19.249 23.4824C19.1025 23.5586 18.9561 23.5908 18.8096 23.5791C18.6689 23.5732 18.5342 23.5088 18.4053 23.3857L17.4824 22.5508C17.2305 22.6621 16.9756 22.7646 16.7178 22.8584C16.46 22.9521 16.1992 23.0371 15.9355 23.1133L15.751 24.3525C15.7275 24.5225 15.666 24.6602 15.5664 24.7656C15.4727 24.877 15.3408 24.9443 15.1709 24.9678C15.0068 24.9912 14.8604 24.9707 14.7314 24.9062C14.6025 24.8477 14.4971 24.7422 14.415 24.5898L13.8262 23.4824C13.6855 23.4883 13.5449 23.4941 13.4043 23.5C13.2695 23.5059 13.1348 23.5088 13 23.5088ZM13 21.5928C14.2363 21.5928 15.3936 21.3613 16.4717 20.8984C17.5557 20.4355 18.5049 19.7939 19.3193 18.9736C20.1396 18.1533 20.7812 17.2041 21.2441 16.126C21.7129 15.042 21.9473 13.8848 21.9473 12.6543C21.9473 11.418 21.7129 10.2607 21.2441 9.18262C20.7812 8.09863 20.1396 7.14648 19.3193 6.32617C18.5049 5.50586 17.5557 4.86426 16.4717 4.40137C15.3936 3.93848 14.2363 3.70703 13 3.70703C11.7637 3.70703 10.6035 3.93848 9.51953 4.40137C8.44141 4.86426 7.49219 5.50586 6.67188 6.32617C5.85156 7.14648 5.20996 8.09863 4.74707 9.18262C4.28418 10.2607 4.05273 11.418 4.05273 12.6543C4.05273 13.8848 4.28418 15.042 4.74707 16.126C5.20996 17.2041 5.85156 18.1533 6.67188 18.9736C7.49219 19.7939 8.44141 20.4355 9.51953 20.8984C10.6035 21.3613 11.7637 21.5928 13 21.5928ZM10.9785 10.8613L7.18164 4.36621L8.64062 3.59277L12.376 10L10.9785 10.8613ZM15.5752 13.4453V11.8018H23.0107V13.4453H15.5752ZM12.4023 15.3174L8.52637 21.6982L7.09375 20.8896L11.0312 14.4297L12.4023 15.3174ZM13.0088 15.6602C12.4521 15.6602 11.9453 15.5254 11.4883 15.2559C11.0371 14.9863 10.6768 14.623 10.4072 14.166C10.1377 13.709 10.0029 13.2051 10.0029 12.6543C10.0029 12.0977 10.1377 11.5938 10.4072 11.1426C10.6768 10.6855 11.0371 10.3223 11.4883 10.0527C11.9453 9.77734 12.4521 9.63965 13.0088 9.63965C13.5596 9.63965 14.0635 9.77734 14.5205 10.0527C14.9775 10.3223 15.3408 10.6855 15.6104 11.1426C15.8799 11.5938 16.0146 12.0977 16.0146 12.6543C16.0146 13.2051 15.8799 13.709 15.6104 14.166C15.3408 14.623 14.9775 14.9863 14.5205 15.2559C14.0635 15.5254 13.5596 15.6602 13.0088 15.6602ZM13.0088 13.999C13.3779 13.999 13.6943 13.8672 13.958 13.6035C14.2217 13.3398 14.3535 13.0234 14.3535 12.6543C14.3535 12.2793 14.2217 11.9629 13.958 11.7051C13.6943 11.4414 13.3779 11.3096 13.0088 11.3096C12.6396 11.3096 12.3232 11.4414 12.0596 11.7051C11.7959 11.9629 11.6641 12.2793 11.6641 12.6543C11.6641 13.0234 11.7959 13.3398 12.0596 13.6035C12.3232 13.8672 12.6396 13.999 13.0088 13.999Z" fill="#EB1618"/>
</svg>
