<svg width="26" height="25" viewBox="0 0 26 25" fill="none" xmlns="http://www.w3.org/2000/svg">
<path d="M0.0710449 21.4785V11.6787C0.0710449 10.9404 0.287842 10.3662 0.721436 9.95605C1.16089 9.54004 1.77026 9.33203 2.54956 9.33203H5.07202V3.99707C5.07202 2.8252 5.37378 1.94043 5.97729 1.34277C6.58081 0.745117 7.47144 0.446289 8.64917 0.446289H22.3777C23.5554 0.446289 24.446 0.745117 25.0496 1.34277C25.6531 1.94043 25.9548 2.8252 25.9548 3.99707V21.3291C25.9548 22.501 25.6531 23.3857 25.0496 23.9834C24.446 24.5811 23.5554 24.8799 22.3777 24.8799H3.54272C2.40601 24.8799 1.54175 24.584 0.949951 23.9922C0.364014 23.4062 0.0710449 22.5684 0.0710449 21.4785ZM2.01343 21.3906C2.01343 21.8359 2.15698 22.2051 2.44409 22.498C2.73706 22.791 3.10327 22.9375 3.54272 22.9375C3.98218 22.9375 4.34546 22.791 4.63257 22.498C4.92554 22.2109 5.07202 21.8418 5.07202 21.3906V11.2744H2.76929C2.53491 11.2744 2.35034 11.3418 2.21558 11.4766C2.08081 11.6113 2.01343 11.793 2.01343 12.0215V21.3906ZM6.61011 22.9375H22.2634C23.4353 22.9375 24.0212 22.3457 24.0212 21.1621V4.16406C24.0212 2.98047 23.4353 2.38867 22.2634 2.38867H8.76343C7.59155 2.38867 7.00562 2.98047 7.00562 4.16406V21.3994C7.00562 21.9971 6.87378 22.5098 6.61011 22.9375ZM9.98511 7.31055C9.78589 7.31055 9.62183 7.24609 9.49292 7.11719C9.36401 6.98242 9.29956 6.81836 9.29956 6.625C9.29956 6.4375 9.36401 6.2793 9.49292 6.15039C9.62183 6.02148 9.78589 5.95703 9.98511 5.95703H21.0593C21.2527 5.95703 21.4138 6.02148 21.5427 6.15039C21.6716 6.2793 21.7361 6.4375 21.7361 6.625C21.7361 6.81836 21.6716 6.98242 21.5427 7.11719C21.4138 7.24609 21.2527 7.31055 21.0593 7.31055H9.98511ZM9.98511 11.2744C9.78589 11.2744 9.62183 11.21 9.49292 11.0811C9.36401 10.9521 9.29956 10.7939 9.29956 10.6064C9.29956 10.4189 9.36401 10.2607 9.49292 10.1318C9.62183 9.99707 9.78589 9.92969 9.98511 9.92969H21.0593C21.2527 9.92969 21.4138 9.99707 21.5427 10.1318C21.6716 10.2607 21.7361 10.4189 21.7361 10.6064C21.7361 10.7939 21.6716 10.9521 21.5427 11.0811C21.4138 11.21 21.2527 11.2744 21.0593 11.2744H9.98511ZM10.6531 19.2549C10.2253 19.2549 9.8855 19.1318 9.63354 18.8857C9.38745 18.6396 9.2644 18.3027 9.2644 17.875V15.2734C9.2644 14.8516 9.38745 14.5176 9.63354 14.2715C9.8855 14.0254 10.2253 13.9023 10.6531 13.9023H13.5183C13.9402 13.9023 14.2742 14.0254 14.5203 14.2715C14.7664 14.5176 14.8894 14.8516 14.8894 15.2734V17.875C14.8894 18.3027 14.7664 18.6396 14.5203 18.8857C14.2742 19.1318 13.9402 19.2549 13.5183 19.2549H10.6531ZM16.9285 15.2559C16.7292 15.2559 16.5652 15.1914 16.4363 15.0625C16.3074 14.9336 16.2429 14.7754 16.2429 14.5879C16.2429 14.3945 16.3074 14.2334 16.4363 14.1045C16.5652 13.9697 16.7292 13.9023 16.9285 13.9023H21.0505C21.2439 13.9023 21.405 13.9697 21.5339 14.1045C21.6628 14.2334 21.7273 14.3945 21.7273 14.5879C21.7273 14.7754 21.6628 14.9336 21.5339 15.0625C21.405 15.1914 21.2439 15.2559 21.0505 15.2559H16.9285ZM16.9285 19.2549C16.7292 19.2549 16.5652 19.1904 16.4363 19.0615C16.3074 18.9385 16.2429 18.7832 16.2429 18.5957C16.2429 18.4023 16.3074 18.2412 16.4363 18.1123C16.5652 17.9775 16.7292 17.9102 16.9285 17.9102H21.0505C21.2439 17.9102 21.405 17.9775 21.5339 18.1123C21.6628 18.2412 21.7273 18.4023 21.7273 18.5957C21.7273 18.7832 21.6628 18.9385 21.5339 19.0615C21.405 19.1904 21.2439 19.2549 21.0505 19.2549H16.9285Z" fill="#EB1618"/>
</svg>
